<svg id="visual" viewBox="0 0 1920 300" width="1920" height="300" xmlns="http://www.w3.org/2000/svg" xmlns:xlink="http://www.w3.org/1999/xlink" version="1.1"><rect x="0" y="0" width="1920" height="300" fill="#002233"></rect><path d="M0 229L18.8 229.7C37.7 230.3 75.3 231.7 113 221.5C150.7 211.3 188.3 189.7 226 191.3C263.7 193 301.3 218 339 217.7C376.7 217.3 414.3 191.7 452 188C489.7 184.3 527.3 202.7 565 201.2C602.7 199.7 640.3 178.3 678 170.2C715.7 162 753.3 167 791 181C828.7 195 866.3 218 903.8 219.2C941.3 220.3 978.7 199.7 1016.2 188.3C1053.7 177 1091.3 175 1129 178.3C1166.7 181.7 1204.3 190.3 1242 186.3C1279.7 182.3 1317.3 165.7 1355 173.7C1392.7 181.7 1430.3 214.3 1468 221.5C1505.7 228.7 1543.3 210.3 1581 209.5C1618.7 208.7 1656.3 225.3 1694 226.7C1731.7 228 1769.3 214 1807 204.8C1844.7 195.7 1882.3 191.3 1901.2 189.2L1920 187L1920 0L1901.2 0C1882.3 0 1844.7 0 1807 0C1769.3 0 1731.7 0 1694 0C1656.3 0 1618.7 0 1581 0C1543.3 0 1505.7 0 1468 0C1430.3 0 1392.7 0 1355 0C1317.3 0 1279.7 0 1242 0C1204.3 0 1166.7 0 1129 0C1091.3 0 1053.7 0 1016.2 0C978.7 0 941.3 0 903.8 0C866.3 0 828.7 0 791 0C753.3 0 715.7 0 678 0C640.3 0 602.7 0 565 0C527.3 0 489.7 0 452 0C414.3 0 376.7 0 339 0C301.3 0 263.7 0 226 0C188.3 0 150.7 0 113 0C75.3 0 37.7 0 18.8 0L0 0Z" fill="#052636"></path><path d="M0 137L18.8 137.5C37.7 138 75.3 139 113 139.7C150.7 140.3 188.3 140.7 226 141.2C263.7 141.7 301.3 142.3 339 153C376.7 163.7 414.3 184.3 452 186.2C489.7 188 527.3 171 565 162.2C602.7 153.3 640.3 152.7 678 150.7C715.7 148.7 753.3 145.3 791 148C828.7 150.7 866.3 159.3 903.8 169.8C941.3 180.3 978.7 192.7 1016.2 192.2C1053.7 191.7 1091.3 178.3 1129 176.5C1166.7 174.7 1204.3 184.3 1242 177C1279.7 169.7 1317.3 145.3 1355 144.7C1392.7 144 1430.3 167 1468 176.5C1505.7 186 1543.3 182 1581 176.8C1618.7 171.7 1656.3 165.3 1694 165C1731.7 164.7 1769.3 170.3 1807 166.5C1844.7 162.7 1882.3 149.3 1901.2 142.7L1920 136L1920 0L1901.2 0C1882.3 0 1844.7 0 1807 0C1769.3 0 1731.7 0 1694 0C1656.3 0 1618.7 0 1581 0C1543.3 0 1505.7 0 1468 0C1430.3 0 1392.7 0 1355 0C1317.3 0 1279.7 0 1242 0C1204.3 0 1166.7 0 1129 0C1091.3 0 1053.7 0 1016.2 0C978.7 0 941.3 0 903.8 0C866.3 0 828.7 0 791 0C753.3 0 715.7 0 678 0C640.3 0 602.7 0 565 0C527.3 0 489.7 0 452 0C414.3 0 376.7 0 339 0C301.3 0 263.7 0 226 0C188.3 0 150.7 0 113 0C75.3 0 37.7 0 18.8 0L0 0Z" fill="#425563"></path><path d="M0 141L18.8 139.3C37.7 137.7 75.3 134.3 113 129.7C150.7 125 188.3 119 226 114C263.7 109 301.3 105 339 112.8C376.7 120.7 414.3 140.3 452 142.2C489.7 144 527.3 128 565 116.7C602.7 105.3 640.3 98.7 678 95.3C715.7 92 753.3 92 791 93.3C828.7 94.7 866.3 97.3 903.8 101.2C941.3 105 978.7 110 1016.2 114.8C1053.7 119.7 1091.3 124.3 1129 131.8C1166.7 139.3 1204.3 149.7 1242 145.2C1279.7 140.7 1317.3 121.3 1355 112.2C1392.7 103 1430.3 104 1468 102.5C1505.7 101 1543.3 97 1581 104.3C1618.7 111.7 1656.3 130.3 1694 132.5C1731.7 134.7 1769.3 120.3 1807 118.2C1844.7 116 1882.3 126 1901.2 131L1920 136L1920 0L1901.2 0C1882.3 0 1844.7 0 1807 0C1769.3 0 1731.7 0 1694 0C1656.3 0 1618.7 0 1581 0C1543.3 0 1505.7 0 1468 0C1430.3 0 1392.7 0 1355 0C1317.3 0 1279.7 0 1242 0C1204.3 0 1166.7 0 1129 0C1091.3 0 1053.7 0 1016.2 0C978.7 0 941.3 0 903.8 0C866.3 0 828.7 0 791 0C753.3 0 715.7 0 678 0C640.3 0 602.7 0 565 0C527.3 0 489.7 0 452 0C414.3 0 376.7 0 339 0C301.3 0 263.7 0 226 0C188.3 0 150.7 0 113 0C75.3 0 37.7 0 18.8 0L0 0Z" fill="#7d8a94"></path><path d="M0 69L18.8 74.5C37.7 80 75.3 91 113 92.2C150.7 93.3 188.3 84.7 226 77.8C263.7 71 301.3 66 339 69C376.7 72 414.3 83 452 92C489.7 101 527.3 108 565 110.5C602.7 113 640.3 111 678 103.7C715.7 96.3 753.3 83.7 791 81C828.7 78.3 866.3 85.7 903.8 92C941.3 98.3 978.7 103.7 1016.2 98.3C1053.7 93 1091.3 77 1129 71.5C1166.7 66 1204.3 71 1242 77.5C1279.7 84 1317.3 92 1355 92.7C1392.7 93.3 1430.3 86.7 1468 87.2C1505.7 87.7 1543.3 95.3 1581 93C1618.7 90.7 1656.3 78.3 1694 74.2C1731.7 70 1769.3 74 1807 82C1844.7 90 1882.3 102 1901.2 108L1920 114L1920 0L1901.2 0C1882.3 0 1844.7 0 1807 0C1769.3 0 1731.7 0 1694 0C1656.3 0 1618.7 0 1581 0C1543.3 0 1505.7 0 1468 0C1430.3 0 1392.7 0 1355 0C1317.3 0 1279.7 0 1242 0C1204.3 0 1166.7 0 1129 0C1091.3 0 1053.7 0 1016.2 0C978.7 0 941.3 0 903.8 0C866.3 0 828.7 0 791 0C753.3 0 715.7 0 678 0C640.3 0 602.7 0 565 0C527.3 0 489.7 0 452 0C414.3 0 376.7 0 339 0C301.3 0 263.7 0 226 0C188.3 0 150.7 0 113 0C75.3 0 37.7 0 18.8 0L0 0Z" fill="#bcc3c8"></path><path d="M0 73L18.8 73C37.7 73 75.3 73 113 67C150.7 61 188.3 49 226 44C263.7 39 301.3 41 339 45.3C376.7 49.7 414.3 56.3 452 54.8C489.7 53.3 527.3 43.7 565 41C602.7 38.3 640.3 42.7 678 45.8C715.7 49 753.3 51 791 52.7C828.7 54.3 866.3 55.7 903.8 52.8C941.3 50 978.7 43 1016.2 38.2C1053.7 33.3 1091.3 30.7 1129 30.3C1166.7 30 1204.3 32 1242 36.8C1279.7 41.7 1317.3 49.3 1355 52.5C1392.7 55.7 1430.3 54.3 1468 54.5C1505.7 54.7 1543.3 56.3 1581 57C1618.7 57.7 1656.3 57.3 1694 54C1731.7 50.7 1769.3 44.3 1807 39.2C1844.7 34 1882.3 30 1901.2 28L1920 26L1920 0L1901.2 0C1882.3 0 1844.7 0 1807 0C1769.3 0 1731.7 0 1694 0C1656.3 0 1618.7 0 1581 0C1543.3 0 1505.7 0 1468 0C1430.3 0 1392.7 0 1355 0C1317.3 0 1279.7 0 1242 0C1204.3 0 1166.7 0 1129 0C1091.3 0 1053.7 0 1016.2 0C978.7 0 941.3 0 903.8 0C866.3 0 828.7 0 791 0C753.3 0 715.7 0 678 0C640.3 0 602.7 0 565 0C527.3 0 489.7 0 452 0C414.3 0 376.7 0 339 0C301.3 0 263.7 0 226 0C188.3 0 150.7 0 113 0C75.3 0 37.7 0 18.8 0L0 0Z" fill="#ffffff"></path></svg>