<svg id="visual" viewBox="0 0 1920 400" width="1920" height="400" xmlns="http://www.w3.org/2000/svg" xmlns:xlink="http://www.w3.org/1999/xlink" version="1.1"><rect x="0" y="0" width="1920" height="400" fill="#2c0049"></rect><path d="M0 194L274 194L274 184L549 184L549 267L823 267L823 236L1097 236L1097 231L1371 231L1371 204L1646 204L1646 260L1920 260L1920 178L1920 0L1920 0L1646 0L1646 0L1371 0L1371 0L1097 0L1097 0L823 0L823 0L549 0L549 0L274 0L274 0L0 0Z" fill="#a362cf"></path><path d="M0 121L274 121L274 148L549 148L549 131L823 131L823 152L1097 152L1097 190L1371 190L1371 172L1646 172L1646 180L1920 180L1920 122L1920 0L1920 0L1646 0L1646 0L1371 0L1371 0L1097 0L1097 0L823 0L823 0L549 0L549 0L274 0L274 0L0 0Z" fill="#d3b0e8"></path><path d="M0 41L274 41L274 119L549 119L549 105L823 105L823 76L1097 76L1097 42L1371 42L1371 86L1646 86L1646 108L1920 108L1920 53L1920 0L1920 0L1646 0L1646 0L1371 0L1371 0L1097 0L1097 0L823 0L823 0L549 0L549 0L274 0L274 0L0 0Z" fill="#ffffff"></path></svg>