<svg id="visual" viewBox="0 0 1920 300" width="1920" height="300" xmlns="http://www.w3.org/2000/svg" xmlns:xlink="http://www.w3.org/1999/xlink" version="1.1"><rect x="0" y="0" width="1920" height="300" fill="#002233"></rect><path d="M0 69L18.8 68.3C37.7 67.7 75.3 66.3 113 76.5C150.7 86.7 188.3 108.3 226 106.7C263.7 105 301.3 80 339 80.3C376.7 80.7 414.3 106.3 452 110C489.7 113.7 527.3 95.3 565 96.8C602.7 98.3 640.3 119.7 678 127.8C715.7 136 753.3 131 791 117C828.7 103 866.3 80 903.8 78.8C941.3 77.7 978.7 98.3 1016.2 109.7C1053.7 121 1091.3 123 1129 119.7C1166.7 116.3 1204.3 107.7 1242 111.7C1279.7 115.7 1317.3 132.3 1355 124.3C1392.7 116.3 1430.3 83.7 1468 76.5C1505.7 69.3 1543.3 87.7 1581 88.5C1618.7 89.3 1656.3 72.7 1694 71.3C1731.7 70 1769.3 84 1807 93.2C1844.7 102.3 1882.3 106.7 1901.2 108.8L1920 111L1920 301L1901.2 301C1882.3 301 1844.7 301 1807 301C1769.3 301 1731.7 301 1694 301C1656.3 301 1618.7 301 1581 301C1543.3 301 1505.7 301 1468 301C1430.3 301 1392.7 301 1355 301C1317.3 301 1279.7 301 1242 301C1204.3 301 1166.7 301 1129 301C1091.3 301 1053.7 301 1016.2 301C978.7 301 941.3 301 903.8 301C866.3 301 828.7 301 791 301C753.3 301 715.7 301 678 301C640.3 301 602.7 301 565 301C527.3 301 489.7 301 452 301C414.3 301 376.7 301 339 301C301.3 301 263.7 301 226 301C188.3 301 150.7 301 113 301C75.3 301 37.7 301 18.8 301L0 301Z" fill="#052636"></path><path d="M0 161L18.8 160.5C37.7 160 75.3 159 113 158.3C150.7 157.7 188.3 157.3 226 156.8C263.7 156.3 301.3 155.7 339 145C376.7 134.3 414.3 113.7 452 111.8C489.7 110 527.3 127 565 135.8C602.7 144.7 640.3 145.3 678 147.3C715.7 149.3 753.3 152.7 791 150C828.7 147.3 866.3 138.7 903.8 128.2C941.3 117.7 978.7 105.3 1016.2 105.8C1053.7 106.3 1091.3 119.7 1129 121.5C1166.7 123.3 1204.3 113.7 1242 121C1279.7 128.3 1317.3 152.7 1355 153.3C1392.7 154 1430.3 131 1468 121.5C1505.7 112 1543.3 116 1581 121.2C1618.7 126.3 1656.3 132.7 1694 133C1731.7 133.3 1769.3 127.7 1807 131.5C1844.7 135.3 1882.3 148.7 1901.2 155.3L1920 162L1920 301L1901.2 301C1882.3 301 1844.7 301 1807 301C1769.3 301 1731.7 301 1694 301C1656.3 301 1618.7 301 1581 301C1543.3 301 1505.7 301 1468 301C1430.3 301 1392.7 301 1355 301C1317.3 301 1279.7 301 1242 301C1204.3 301 1166.7 301 1129 301C1091.3 301 1053.7 301 1016.2 301C978.7 301 941.3 301 903.8 301C866.3 301 828.7 301 791 301C753.3 301 715.7 301 678 301C640.3 301 602.7 301 565 301C527.3 301 489.7 301 452 301C414.3 301 376.7 301 339 301C301.3 301 263.7 301 226 301C188.3 301 150.7 301 113 301C75.3 301 37.7 301 18.8 301L0 301Z" fill="#425563"></path><path d="M0 157L18.8 158.7C37.7 160.3 75.3 163.7 113 168.3C150.7 173 188.3 179 226 184C263.7 189 301.3 193 339 185.2C376.7 177.3 414.3 157.7 452 155.8C489.7 154 527.3 170 565 181.3C602.7 192.7 640.3 199.3 678 202.7C715.7 206 753.3 206 791 204.7C828.7 203.3 866.3 200.7 903.8 196.8C941.3 193 978.7 188 1016.2 183.2C1053.7 178.3 1091.3 173.7 1129 166.2C1166.7 158.7 1204.3 148.3 1242 152.8C1279.7 157.3 1317.3 176.7 1355 185.8C1392.7 195 1430.3 194 1468 195.5C1505.7 197 1543.3 201 1581 193.7C1618.7 186.3 1656.3 167.7 1694 165.5C1731.7 163.3 1769.3 177.7 1807 179.8C1844.7 182 1882.3 172 1901.2 167L1920 162L1920 301L1901.2 301C1882.3 301 1844.7 301 1807 301C1769.3 301 1731.7 301 1694 301C1656.3 301 1618.7 301 1581 301C1543.3 301 1505.7 301 1468 301C1430.3 301 1392.7 301 1355 301C1317.3 301 1279.7 301 1242 301C1204.3 301 1166.7 301 1129 301C1091.3 301 1053.7 301 1016.2 301C978.7 301 941.3 301 903.8 301C866.3 301 828.7 301 791 301C753.3 301 715.7 301 678 301C640.3 301 602.7 301 565 301C527.3 301 489.7 301 452 301C414.3 301 376.7 301 339 301C301.3 301 263.7 301 226 301C188.3 301 150.7 301 113 301C75.3 301 37.7 301 18.8 301L0 301Z" fill="#7d8a94"></path><path d="M0 229L18.8 223.5C37.7 218 75.3 207 113 205.8C150.7 204.7 188.3 213.3 226 220.2C263.7 227 301.3 232 339 229C376.7 226 414.3 215 452 206C489.7 197 527.3 190 565 187.5C602.7 185 640.3 187 678 194.3C715.7 201.7 753.3 214.3 791 217C828.7 219.7 866.3 212.3 903.8 206C941.3 199.7 978.7 194.3 1016.2 199.7C1053.7 205 1091.3 221 1129 226.5C1166.7 232 1204.3 227 1242 220.5C1279.7 214 1317.3 206 1355 205.3C1392.7 204.7 1430.3 211.3 1468 210.8C1505.7 210.3 1543.3 202.7 1581 205C1618.7 207.3 1656.3 219.7 1694 223.8C1731.7 228 1769.3 224 1807 216C1844.7 208 1882.3 196 1901.2 190L1920 184L1920 301L1901.2 301C1882.3 301 1844.7 301 1807 301C1769.3 301 1731.7 301 1694 301C1656.3 301 1618.7 301 1581 301C1543.3 301 1505.7 301 1468 301C1430.3 301 1392.7 301 1355 301C1317.3 301 1279.7 301 1242 301C1204.3 301 1166.7 301 1129 301C1091.3 301 1053.7 301 1016.2 301C978.7 301 941.3 301 903.8 301C866.3 301 828.7 301 791 301C753.3 301 715.7 301 678 301C640.3 301 602.7 301 565 301C527.3 301 489.7 301 452 301C414.3 301 376.7 301 339 301C301.3 301 263.7 301 226 301C188.3 301 150.7 301 113 301C75.3 301 37.7 301 18.8 301L0 301Z" fill="#bcc3c8"></path><path d="M0 225L18.8 225C37.7 225 75.3 225 113 231C150.7 237 188.3 249 226 254C263.7 259 301.3 257 339 252.7C376.7 248.3 414.3 241.7 452 243.2C489.7 244.7 527.3 254.3 565 257C602.7 259.7 640.3 255.3 678 252.2C715.7 249 753.3 247 791 245.3C828.7 243.7 866.3 242.3 903.8 245.2C941.3 248 978.7 255 1016.2 259.8C1053.7 264.7 1091.3 267.3 1129 267.7C1166.7 268 1204.3 266 1242 261.2C1279.7 256.3 1317.3 248.7 1355 245.5C1392.7 242.3 1430.3 243.7 1468 243.5C1505.7 243.3 1543.3 241.7 1581 241C1618.7 240.3 1656.3 240.7 1694 244C1731.7 247.3 1769.3 253.7 1807 258.8C1844.7 264 1882.3 268 1901.2 270L1920 272L1920 301L1901.2 301C1882.3 301 1844.7 301 1807 301C1769.3 301 1731.7 301 1694 301C1656.3 301 1618.7 301 1581 301C1543.3 301 1505.7 301 1468 301C1430.3 301 1392.7 301 1355 301C1317.3 301 1279.7 301 1242 301C1204.3 301 1166.7 301 1129 301C1091.3 301 1053.7 301 1016.2 301C978.7 301 941.3 301 903.8 301C866.3 301 828.7 301 791 301C753.3 301 715.7 301 678 301C640.3 301 602.7 301 565 301C527.3 301 489.7 301 452 301C414.3 301 376.7 301 339 301C301.3 301 263.7 301 226 301C188.3 301 150.7 301 113 301C75.3 301 37.7 301 18.8 301L0 301Z" fill="#ffffff"></path></svg>