<svg id="visual" viewBox="0 0 1920 400" width="1920" height="400" xmlns="http://www.w3.org/2000/svg" xmlns:xlink="http://www.w3.org/1999/xlink" version="1.1"><rect x="0" y="0" width="1920" height="400" fill="#2c0049"></rect><path d="M0 257L274 257L274 231L549 231L549 197L823 197L823 199L1097 199L1097 186L1371 186L1371 255L1646 255L1646 258L1920 258L1920 226L1920 0L1920 0L1646 0L1646 0L1371 0L1371 0L1097 0L1097 0L823 0L823 0L549 0L549 0L274 0L274 0L0 0Z" fill="#a362cf"></path><path d="M0 131L274 131L274 128L549 128L549 106L823 106L823 104L1097 104L1097 107L1371 107L1371 159L1646 159L1646 151L1920 151L1920 121L1920 0L1920 0L1646 0L1646 0L1371 0L1371 0L1097 0L1097 0L823 0L823 0L549 0L549 0L274 0L274 0L0 0Z" fill="#d3b0e8"></path><path d="M0 94L274 94L274 106L549 106L549 106L823 106L823 117L1097 117L1097 39L1371 39L1371 65L1646 65L1646 100L1920 100L1920 101L1920 0L1920 0L1646 0L1646 0L1371 0L1371 0L1097 0L1097 0L823 0L823 0L549 0L549 0L274 0L274 0L0 0Z" fill="#ffffff"></path></svg>