<svg id="visual" viewBox="0 0 1980 400" width="1980" height="400" xmlns="http://www.w3.org/2000/svg" xmlns:xlink="http://www.w3.org/1999/xlink" version="1.1"><rect x="0" y="0" width="1980" height="400" fill="#FFFFFF"></rect><path d="M0 337L41.3 311.3C82.7 285.7 165.3 234.3 247.8 221.3C330.3 208.3 412.7 233.7 495.2 258.2C577.7 282.7 660.3 306.3 742.8 294.7C825.3 283 907.7 236 990.2 212.2C1072.7 188.3 1155.3 187.7 1237.8 213C1320.3 238.3 1402.7 289.7 1485.2 290.3C1567.7 291 1650.3 241 1732.8 214.2C1815.3 187.3 1897.7 183.7 1938.8 181.8L1980 180L1980 401L1938.8 401C1897.7 401 1815.3 401 1732.8 401C1650.3 401 1567.7 401 1485.2 401C1402.7 401 1320.3 401 1237.8 401C1155.3 401 1072.7 401 990.2 401C907.7 401 825.3 401 742.8 401C660.3 401 577.7 401 495.2 401C412.7 401 330.3 401 247.8 401C165.3 401 82.7 401 41.3 401L0 401Z" fill="#1e365b" stroke-linecap="round" stroke-linejoin="miter"></path></svg>